<?xml version="1.0" encoding="utf-8"?>
<!-- Generator: Adobe Illustrator 16.0.0, SVG Export Plug-In . SVG Version: 6.00 Build 0)  -->
<!DOCTYPE svg PUBLIC "-//W3C//DTD SVG 1.1//EN" "http://www.w3.org/Graphics/SVG/1.1/DTD/svg11.dtd">
<svg version="1.1" id="Capa_1" xmlns="http://www.w3.org/2000/svg" xmlns:xlink="http://www.w3.org/1999/xlink" x="0px" y="0px"
	 width="638.92px" height="225.972px" viewBox="0 0 638.92 225.972" enable-background="new 0 0 638.92 225.972"
	 xml:space="preserve">
<g>
	<path fill-rule="evenodd" clip-rule="evenodd" d="M18.998,1C219.639,1,420.28,1,620.922,1c1.406,1.817,3.422,1.063,5.102,0.949
		c3.32-0.227,4.823,0.874,5.02,4.36c0.265,4.683-1.427,6.614-6.927,6.645c-11.658,0.065-23.315,0.02-34.974,0.02
		c4.613,0.956,9.182,1.681,13.755,2.548c16.02,3.035,17.823,18.976,12.732,29.551c-2.376,4.935-5.811,8.899-10.048,12.167
		c-2.958,2.281-3.862,4.371-1.658,7.863c6.648,10.527,12.221,21.631,15.74,33.609c2.239,7.621,3.842,15.153,11.021,20.381
		c3.876,2.821,2.428,6.802-2.183,8.762c-3.729,1.586-7.682,2.059-11.675,2.187c-25.445,0.815-50.895-0.672-76.35,0.231
		c-8.424,0.299-16.993,0.505-25.36-1.326c-3.403-0.744-7.649-1.459-7.19-6.034c0.519-5.18-2.051-5.827-6.069-6.063
		c-13.292-0.777-26.597-0.05-39.879-0.479c-19.242-0.621-38.607,1.525-57.708-2.394c-4.085-0.839-8.231-2.021-12.305-0.637
		c-11.88,4.04-23.994,3.425-36.034,1.632c-6.198-0.923-12.198-1.439-18.236,0.235c-2.62,0.728-5.259,0.662-7.905,0.869
		c-24.404,1.915-48.769-1.102-73.215-0.288c-32.059,1.067-64.181,0.166-96.276,0.224c-12.645,0.023-25.332,0.983-37.906-0.577
		c-5.541-0.688-10.079,0.058-14.3,3.697c-7.255,6.256-15.965,9.126-25.237,10.996c-14.139,2.853-28.151,0.899-42.187-0.438
		c-5.284-0.503-10.648-0.086-15.86-1.468c-4.285-1.137-6.762-3.424-5.949-8.222c0.192-1.136,0.086-2.319,0.169-3.478
		c0.595-8.242-2.022-16.102-2.906-24.17c-1.089-9.947,0.432-12.244,10.081-13.722c1.633-0.25,3.288-0.363,4.937-0.493
		c1.257-0.1,2.939,0.475,3.376-1.187c0.354-1.346-1.194-1.843-2.099-2.471c-3.728-2.585-7.032-5.661-9.143-9.653
		c-7.978-15.088-2.585-35.133,11.7-44.444c5.191-3.384,10.983-5.258,16.847-7.124c-11.401-0.288-22.724-0.273-34.048-0.305
		c-1.653-0.005-3.343-0.051-4.951-0.39c-4.104-0.863-4.358-4.061-4.089-7.376c0.268-3.284,2.728-3.127,5.153-3.217
		C15.606,1.911,17.59,2.814,18.998,1z M247.999,41.198c-0.033-10.217,1.725-12.199,11.33-13.327
		c12.275-1.441,24.54-1.153,36.853-0.076c12.96,1.133,25.882-1.533,38.884-0.901c16.615,0.807,33.288-0.973,49.894,1.023
		c3.941,0.474,7.723,2.634,11.781,1.588c12.699-3.273,25.485-4.225,38.55-2.629c16.428,2.007,32.904-0.682,49.362,0.038
		c6.332,0.276,12.648-0.1,18.932-0.944c2.209-0.298,4.712-0.617,4.263-3.645c-0.731-4.936,2.191-6.505,6.128-7.363
		c2.415-0.525,4.842-0.996,8.624-1.769c-142.455,0-283.496,0-424.538,0c3.262,0.748,6.651,0.517,9.766,1.823
		c2.472,1.035,5.411,2.182,4.881,5.444c-0.758,4.675,2.013,5.249,5.376,5.561c2.482,0.229,4.963,0.48,7.45,0.631
		c14.488,0.879,28.975-0.787,43.417-0.365c14.646,0.428,29.289,0.277,43.921,0.725C225.978,27.411,239.657,26.803,247.999,41.198z
		 M98.383,82.978c0.019-5.117-4.969-12.3-11.294-15.858c-12.629-7.104-26.56-11.265-39.706-17.213
		c-2.757-1.247-4.058-0.283-3.979,2.796C43.63,61.522,49.831,65.9,56.544,69.17c8.928,4.349,18.323,7.732,27.479,11.622
		c3.488,1.481,6.836,3.291,10.31,4.808C97.226,86.864,98.254,85.276,98.383,82.978z M73.451,99.478
		c0.146-3.313-1.306-6.057-3.798-7.812c-6.6-4.646-14.151-7.27-21.95-9.054c-2.909-0.666-4.205,1.316-3.209,3.89
		c2.819,7.289,5.846,14.621,12.279,19.547c3.368,2.578,7.439,3.697,11.659,1.433C71.642,105.761,73.214,103.011,73.451,99.478z
		 M340.932,93.437c0,2.084-0.007,2.748,0.001,3.412c0.059,4.943,2.831,7.979,6.917,7.582c4.907-0.479,6.593-2.828,5.94-8.283
		c-0.579-4.837-3.738-8.149-7.29-10.79c-2.203-1.638-4.856-1.156-5.144,2.573C341.179,90.234,341.001,92.537,340.932,93.437z
		 M513.756,77.887c-4.596-1.39-7.702-0.803-10.752-0.597c-6.008,0.406-7.914,3.355-6.097,8.967c0.734,2.269,1.567,3.111,3.703,1.18
		C504.339,84.062,507.586,80.098,513.756,77.887z M244.258,61.838c0.096-2.175,0.031-3.917-2.073-4.376
		c-1.566-0.342-8.127,4.964-7.999,6.515c0.239,2.866,1.646,5.541,4.722,5.199C243.138,68.705,243.762,64.895,244.258,61.838z
		 M424.013,58.724c1.875-1.637,6.169,1.021,6.924-3.276c0.408-2.322-4.439-6.021-7.167-5.597c-3.321,0.516-5.471,3.011-5.496,6.071
		C418.246,59.123,421.461,58.429,424.013,58.724z M81.351,44.186c0.172-2.796-4.448-7.609-7.818-7.871
		c-2.292-0.178-3.934,0.703-3.989,3.264c-0.058,2.686,4.683,6.006,9.046,6.439C79.943,46.153,81.36,46.43,81.351,44.186z
		 M550.161,66.235c-2.335-1.452-4.632-2.189-7.007-1.981c-1.242,0.108-3.161,0.565-2.622,2.733c0.409,1.643,1.511,2.631,3.258,2.086
		C545.876,68.423,548.208,68.227,550.161,66.235z M548.895,25.154c-2.284-1.484-4.516-0.513-6.703-0.173
		c-1.108,0.172-2.44,0.373-1.828,2.102c0.465,1.314,1.395,1.777,2.694,1.213C545.049,27.432,547.46,27.321,548.895,25.154z
		 M568.618,65.015c3.095,1.521,5.359,2.854,8.055,1.965c0.793-0.262,0.514-1.699-0.021-2.203
		C574.494,62.747,572.136,63.439,568.618,65.015z"/>
	<path fill-rule="evenodd" clip-rule="evenodd" fill="none" d="M18.998,1c-1.407,1.814-3.391,0.911-5.109,0.975
		c-2.425,0.09-4.885-0.066-5.153,3.217c-0.27,3.315-0.015,6.513,4.089,7.376c1.607,0.339,3.298,0.385,4.951,0.39
		c11.324,0.031,22.647,0.017,34.048,0.305c-5.863,1.866-11.655,3.74-16.847,7.124c-14.285,9.311-19.678,29.356-11.7,44.444
		c2.111,3.993,5.415,7.068,9.143,9.653c0.905,0.628,2.453,1.125,2.099,2.471c-0.437,1.661-2.119,1.087-3.376,1.187
		c-1.649,0.13-3.304,0.243-4.937,0.493c-9.649,1.478-11.17,3.775-10.081,13.722c0.884,8.068,3.501,15.928,2.906,24.17
		c-0.083,1.158,0.023,2.342-0.169,3.478c-0.813,4.798,1.664,7.085,5.949,8.222c5.211,1.382,10.576,0.965,15.86,1.468
		c14.035,1.337,28.048,3.29,42.187,0.438c9.272-1.87,17.982-4.74,25.237-10.996c4.221-3.64,8.759-4.385,14.3-3.697
		c12.574,1.561,25.261,0.601,37.906,0.577c32.095-0.058,64.217,0.844,96.276-0.224c24.446-0.813,48.811,2.203,73.215,0.288
		c2.646-0.207,5.285-0.142,7.905-0.869c6.038-1.674,12.038-1.158,18.236-0.235c12.04,1.793,24.154,2.407,36.034-1.632
		c4.073-1.385,8.22-0.202,12.305,0.637c19.101,3.919,38.466,1.773,57.708,2.394c13.282,0.429,26.587-0.299,39.879,0.479
		c4.019,0.235,6.588,0.883,6.069,6.063c-0.459,4.575,3.787,5.29,7.19,6.034c8.367,1.831,16.937,1.625,25.36,1.326
		c25.455-0.903,50.904,0.584,76.35-0.231c3.993-0.128,7.945-0.601,11.675-2.187c4.61-1.96,6.059-5.94,2.183-8.762
		c-7.18-5.228-8.782-12.76-11.021-20.381c-3.52-11.978-9.092-23.082-15.74-33.609c-2.204-3.493-1.3-5.582,1.658-7.863
		c4.237-3.268,7.672-7.232,10.048-12.167c5.091-10.575,3.287-26.516-12.732-29.551c-4.573-0.867-9.142-1.593-13.755-2.548
		c11.658,0,23.315,0.046,34.974-0.02c5.5-0.031,7.191-1.962,6.927-6.645c-0.196-3.487-1.699-4.587-5.02-4.36
		c-1.68,0.114-3.695,0.868-5.102-0.949c6,0,12.001,0.088,17.997-0.055c1.74-0.042,2.361,0.315,2.021,2.058
		C640.814,3.646,640.92,4.333,640.92,5c0,72.991-0.03,145.982,0.097,218.972c0.006,3.425-0.673,4.096-4.097,4.095
		c-210.641-0.105-421.28-0.105-631.92,0c-3.423,0.001-4.102-0.67-4.096-4.095C1.031,150.981,1.031,77.99,0.904,5
		C0.898,1.575,1.546,0.624,5.007,0.906C9.643,1.284,14.332,1,18.998,1z M562.545,157.954c19.828,0,39.656-0.002,59.484,0.002
		c2.503,0.001,5.033,0.166,7.113-1.651c1.76-1.537,2.583-3.42,2.056-5.749c-0.325-1.438-0.548-3.604-2.342-3.325
		c-4.417,0.684-8.076-2.118-12.302-2.114c-36.823,0.035-73.647,0.021-110.471,0.035c-1.753,0.001-3.352-0.188-5.07,1.197
		c-1.343,1.083-4.379,1.988-4.635-1.597c-0.492-6.902-1.221-8.021-8.16-8.849c-6.937-0.827-13.907-1.572-20.882-1.822
		c-12.932-0.465-25.634,0.469-36.778,8.258c-2.855,1.995-6.115,1.899-9.018,0.265c-11.268-6.344-23.543-7.621-36.13-7.669
		c-13.482-0.052-26.995,1-40.408,0.604c-15.651-0.46-31.295-0.181-46.932-0.634c-12.083-0.35-24.015,1.618-36.263,0.493
		c-13.572-1.248-27.664-2.353-40.931,3.278c-1.601,0.68-3.314,0.481-4.89-0.115c-12.113-4.588-24.846-4.738-37.427-4.288
		c-11.166,0.4-22.207,2.604-30.43,11.481c-1.166,1.259-2.772,0.857-4.147,1.289c-3.821,1.199-6.575-2.107-10.244-1.99
		c-39.59,1.26-79.256-2.31-118.809,1.894c-2.717,0.289-5.187-0.388-5.04,3.912c0.134,3.93,0.386,7.034,5.281,7.085
		c1.333,0.014,2.666,0.006,3.999,0.006c38.657,0,77.313,0.008,115.97-0.018c2.838-0.002,5.54-0.216,4.313,4.084
		c-2.341,8.203-2.452,16.479-1.599,24.983c1.8,17.943,13.797,32.213,31.376,36.071c16.797,3.687,33.785,1.978,50.713,1.36
		c8.8-0.32,17.69-2.1,26.357-1.28c16.614,1.569,33.217,1.398,49.802,1.121c22.807-0.382,45.6,0.333,68.396,0.097
		c16.418-0.171,32.947,0.922,49.022-3.927c2.151-0.648,4.913-0.995,6.885-0.208c8.388,3.347,17.218,3.378,25.956,4.197
		c12.175,1.143,24.12,0.846,35.978-3.074c19.064-6.304,25.694-26.576,18.065-42.75c-3.06-6.486-3.155-9.143-3.146-16.163
		c0.007-4.441,1.921-4.564,5.301-4.546C522.555,158.01,542.55,157.953,562.545,157.954z"/>
	<path fill-rule="evenodd" clip-rule="evenodd" fill="none" d="M247.999,41.198c-8.341-14.395-22.021-13.787-35.126-14.188
		c-14.633-0.447-29.276-0.297-43.921-0.725c-14.442-0.422-28.929,1.244-43.417,0.365c-2.487-0.15-4.968-0.401-7.45-0.631
		c-3.363-0.312-6.134-0.885-5.376-5.561c0.529-3.262-2.41-4.409-4.881-5.444c-3.115-1.306-6.504-1.075-9.766-1.823
		c141.042,0,282.083,0,424.538,0c-3.782,0.773-6.209,1.244-8.624,1.769c-3.937,0.858-6.859,2.428-6.128,7.363
		c0.449,3.028-2.054,3.347-4.263,3.645c-6.283,0.845-12.6,1.221-18.932,0.944c-16.458-0.72-32.935,1.969-49.362-0.038
		c-13.064-1.595-25.851-0.644-38.55,2.629c-4.059,1.046-7.84-1.115-11.781-1.588c-16.605-1.996-33.278-0.217-49.894-1.023
		c-13.002-0.632-25.923,2.034-38.884,0.901c-12.313-1.077-24.577-1.365-36.853,0.076C249.723,28.999,247.965,30.98,247.999,41.198z"
		/>
	<path fill-rule="evenodd" clip-rule="evenodd" fill="none" d="M98.383,82.978c-0.128,2.298-1.157,3.886-4.051,2.622
		c-3.474-1.518-6.821-3.327-10.31-4.808c-9.155-3.889-18.551-7.272-27.479-11.622c-6.713-3.27-12.914-7.647-13.141-16.467
		c-0.079-3.08,1.222-4.043,3.979-2.796c13.146,5.948,27.077,10.108,39.706,17.213C93.414,70.678,98.402,77.861,98.383,82.978z"/>
	<path fill-rule="evenodd" clip-rule="evenodd" fill="none" d="M73.451,99.478c-0.236,3.533-1.809,6.284-5.02,8.005
		c-4.22,2.264-8.291,1.145-11.659-1.433c-6.433-4.926-9.459-12.258-12.279-19.547c-0.996-2.574,0.3-4.556,3.209-3.89
		c7.799,1.785,15.35,4.408,21.95,9.054C72.145,93.421,73.597,96.165,73.451,99.478z"/>
	<path fill-rule="evenodd" clip-rule="evenodd" fill="none" d="M340.932,93.437c0.069-0.899,0.247-3.203,0.425-5.506
		c0.287-3.729,2.94-4.21,5.144-2.573c3.552,2.64,6.711,5.953,7.29,10.79c0.652,5.456-1.033,7.805-5.94,8.283
		c-4.086,0.397-6.858-2.639-6.917-7.582C340.925,96.184,340.932,95.521,340.932,93.437z"/>
	<path fill-rule="evenodd" clip-rule="evenodd" fill="none" d="M513.756,77.887c-6.17,2.211-9.417,6.175-13.146,9.55
		c-2.136,1.931-2.969,1.089-3.703-1.18c-1.817-5.612,0.089-8.561,6.097-8.967C506.054,77.084,509.16,76.497,513.756,77.887z"/>
	<path fill-rule="evenodd" clip-rule="evenodd" fill="none" d="M244.258,61.838c-0.496,3.057-1.121,6.867-5.35,7.338
		c-3.075,0.342-4.483-2.333-4.722-5.199c-0.129-1.551,6.433-6.857,7.999-6.515C244.289,57.921,244.354,59.663,244.258,61.838z"/>
	<path fill-rule="evenodd" clip-rule="evenodd" fill="none" d="M424.013,58.724c-2.552-0.295-5.767,0.398-5.739-2.802
		c0.025-3.06,2.175-5.555,5.496-6.071c2.728-0.424,7.575,3.275,7.167,5.597C430.182,59.745,425.888,57.087,424.013,58.724z"/>
	<path fill-rule="evenodd" clip-rule="evenodd" fill="none" d="M81.351,44.186c0.01,2.244-1.408,1.967-2.761,1.833
		c-4.364-0.434-9.104-3.753-9.046-6.439c0.055-2.562,1.697-3.442,3.989-3.264C76.902,36.577,81.523,41.39,81.351,44.186z"/>
	<path fill-rule="evenodd" clip-rule="evenodd" fill="none" d="M550.161,66.235c-1.953,1.992-4.285,2.188-6.371,2.838
		c-1.747,0.545-2.849-0.443-3.258-2.086c-0.539-2.168,1.38-2.625,2.622-2.733C545.529,64.046,547.826,64.783,550.161,66.235z"/>
	<path fill-rule="evenodd" clip-rule="evenodd" fill="none" d="M548.895,25.154c-1.435,2.167-3.846,2.278-5.837,3.142
		c-1.3,0.564-2.229,0.102-2.694-1.213c-0.612-1.729,0.72-1.93,1.828-2.102C544.379,24.642,546.61,23.67,548.895,25.154z"/>
	<path fill-rule="evenodd" clip-rule="evenodd" fill="none" d="M568.618,65.015c3.518-1.576,5.876-2.268,8.033-0.238
		c0.535,0.504,0.814,1.941,0.021,2.203C573.978,67.87,571.713,66.537,568.618,65.015z"/>
	<path fill-rule="evenodd" clip-rule="evenodd" d="M562.545,157.954c-19.995-0.001-39.99,0.056-59.984-0.056
		c-3.38-0.019-5.294,0.104-5.301,4.546c-0.01,7.021,0.086,9.677,3.146,16.163c7.629,16.174,0.999,36.446-18.065,42.75
		c-11.857,3.92-23.803,4.217-35.978,3.074c-8.738-0.819-17.568-0.851-25.956-4.197c-1.972-0.787-4.733-0.44-6.885,0.208
		c-16.075,4.849-32.604,3.756-49.022,3.927c-22.797,0.236-45.59-0.479-68.396-0.097c-16.585,0.277-33.188,0.448-49.802-1.121
		c-8.667-0.819-17.558,0.96-26.357,1.28c-16.928,0.617-33.916,2.326-50.713-1.36c-17.58-3.858-29.576-18.128-31.376-36.071
		c-0.853-8.505-0.742-16.78,1.599-24.983c1.228-4.3-1.474-4.086-4.313-4.084c-38.657,0.025-77.313,0.018-115.97,0.018
		c-1.333,0-2.666,0.008-3.999-0.006c-4.895-0.051-5.146-3.155-5.281-7.085c-0.147-4.3,2.323-3.623,5.04-3.912
		c39.553-4.203,79.219-0.634,118.809-1.894c3.669-0.117,6.423,3.189,10.244,1.99c1.375-0.432,2.981-0.03,4.147-1.289
		c8.224-8.878,19.265-11.081,30.43-11.481c12.581-0.45,25.314-0.3,37.427,4.288c1.576,0.597,3.289,0.795,4.89,0.115
		c13.267-5.631,27.359-4.526,40.931-3.278c12.248,1.125,24.18-0.843,36.263-0.493c15.637,0.453,31.28,0.174,46.932,0.634
		c13.413,0.396,26.926-0.656,40.408-0.604c12.587,0.048,24.862,1.325,36.13,7.669c2.902,1.635,6.162,1.73,9.018-0.265
		c11.145-7.789,23.847-8.723,36.778-8.258c6.975,0.25,13.945,0.995,20.882,1.822c6.939,0.827,7.668,1.946,8.16,8.849
		c0.256,3.585,3.292,2.68,4.635,1.597c1.719-1.386,3.317-1.196,5.07-1.197c36.823-0.015,73.647,0,110.471-0.035
		c4.226-0.004,7.885,2.798,12.302,2.114c1.794-0.278,2.017,1.888,2.342,3.325c0.527,2.329-0.296,4.212-2.056,5.749
		c-2.08,1.817-4.61,1.652-7.113,1.651C602.201,157.952,582.373,157.954,562.545,157.954z M181.836,175.554
		c0.806,7.511,0.568,15.308,5.996,21.598c3.008,3.485,5.458,3.727,8.513,0.165c1.709-1.992,3.64-3.607,6.104-3.929
		c7.576-0.988,9.711-6.545,11.185-12.732c1.72-7.217,1.581-7.092-6.053-7.785c-6.475-0.588-13.55-0.376-16.432-8.429
		c-0.747-2.088-3.383-2.445-5.144-2.225c-1.652,0.207-3.107,1.972-3.332,3.937C182.317,169.264,181.345,172.332,181.836,175.554z
		 M452.1,169.043c-2.021,0.108-3.478-0.483-3.879,1.066c-0.447,1.726,0.94,2.866,2.081,3.672c7.012,4.952,15.014,7.627,23.252,9.653
		c1.05,0.258,2.508,0.364,3.046-0.985c0.432-1.082-0.563-1.843-1.268-2.493C468.494,173.646,459.717,171.633,452.1,169.043z
		 M456.356,202.625c2.099,0.585,3.37-0.703,4.212-2.431c1.132-2.32-0.282-3.876-2.095-4.879c-2.653-1.469-5.18-3.728-8.61-2.444
		c-0.314,0.117-0.492,0.84-0.572,1.31C448.84,196.838,453.476,202.446,456.356,202.625z"/>
	<path fill-rule="evenodd" clip-rule="evenodd" fill="none" d="M181.836,175.554c-0.491-3.222,0.481-6.29,0.837-9.4
		c0.225-1.965,1.68-3.729,3.332-3.937c1.761-0.221,4.397,0.137,5.144,2.225c2.881,8.053,9.957,7.841,16.432,8.429
		c7.634,0.693,7.773,0.568,6.053,7.785c-1.474,6.188-3.609,11.744-11.185,12.732c-2.464,0.321-4.395,1.937-6.104,3.929
		c-3.056,3.562-5.505,3.32-8.513-0.165C182.404,190.861,182.643,183.064,181.836,175.554z"/>
	<path fill-rule="evenodd" clip-rule="evenodd" fill="none" d="M452.1,169.043c7.617,2.59,16.395,4.604,23.232,10.913
		c0.705,0.65,1.699,1.411,1.268,2.493c-0.538,1.35-1.996,1.243-3.046,0.985c-8.238-2.026-16.24-4.701-23.252-9.653
		c-1.141-0.806-2.528-1.946-2.081-3.672C448.622,168.56,450.078,169.151,452.1,169.043z"/>
	<path fill-rule="evenodd" clip-rule="evenodd" fill="none" d="M456.356,202.625c-2.881-0.179-7.517-5.787-7.065-8.444
		c0.08-0.47,0.258-1.192,0.572-1.31c3.431-1.283,5.957,0.976,8.61,2.444c1.813,1.003,3.227,2.559,2.095,4.879
		C459.727,201.922,458.455,203.21,456.356,202.625z"/>
</g>
</svg>
