<svg xmlns="http://www.w3.org/2000/svg" width="595.28" height="479.07" viewBox="-4 0 595.28 479.07">
  <path d="M113.094 396.883V81.18c0-3.429.59-6.805 1.056-10.111L23.647 100.53c-20.993 6.818-32.503 29.578-25.683 50.567l97.599 300.25c5.494 16.912 21.35 27.724 38.275 27.724 4.083 0 8.245-.632 12.326-1.955l25.677-8.451c-33.241-6.638-58.747-36.679-58.747-71.782z"/>
  <path fill="none" d="M242.184 0v.501h.023"/>
  <path d="M178.795 349.783L276.35 49.594c.984-3.034 2.163-6.706 3.503-8.712h-93.854c-22.072 0-40.8 18.224-40.8 40.296v315.703c0 22.072 18.728 41.305 40.8 41.305h32.043c-33.301-16.051-50.759-52.973-39.247-88.403z"/>
  <path d="M563.557 100.53L357.451 33.563a39.708 39.708 0 0 0-12.314-1.957c-16.928 0-32.76 10.81-38.254 27.718l-97.554 300.251c-6.82 20.995 4.772 43.75 25.767 50.569l206.102 66.97a39.955 39.955 0 0 0 12.316 1.955c16.928 0 32.76-10.814 38.254-27.726l97.556-300.25c6.82-20.987-4.774-43.745-25.767-50.563z"/>
  <g>
    <path fill="#FFF" d="M468.795 263.033l-55.75-18.184 18.184-55.75c.828-2.538-.823-9.17-7.721-11.42-6.896-2.249-12.143 2.134-12.972 4.671l-18.184 55.75-55.748-18.183c-2.539-.828-9.171.824-11.42 7.72-2.25 6.896 2.132 12.141 4.671 12.969l55.749 18.187-18.184 55.748c-.828 2.539.821 9.172 7.722 11.422 6.896 2.248 12.14-2.135 12.968-4.672l18.186-55.75 55.749 18.185c2.54.829 9.173-.822 11.421-7.722 2.251-6.899-2.135-12.143-4.671-12.971z"/>
  </g>
</svg>